<svg id="visual" viewBox="0 0 900 600" width="900" height="600" xmlns="http://www.w3.org/2000/svg" xmlns:xlink="http://www.w3.org/1999/xlink" version="1.1"><path d="M0 454L25 463C50 472 100 490 150 499.8C200 509.7 250 511.3 300 510C350 508.7 400 504.3 450 491.8C500 479.3 550 458.7 600 441.2C650 423.7 700 409.3 750 423.5C800 437.7 850 480.3 875 501.7L900 523L900 601L875 601C850 601 800 601 750 601C700 601 650 601 600 601C550 601 500 601 450 601C400 601 350 601 300 601C250 601 200 601 150 601C100 601 50 601 25 601L0 601Z" fill="#ffffff" stroke-linecap="round" stroke-linejoin="miter"></path></svg>